<svg xmlns="http://www.w3.org/2000/svg" version="1.1" xmlns:xlink="http://www.w3.org/1999/xlink" xmlns:svgjs="http://svgjs.com/svgjs" width="1440" height="560" preserveAspectRatio="none" viewBox="0 0 1440 560">
    <g mask="url(&quot;#SvgjsMask1068&quot;)" fill="none">
        <rect width="1440" height="560" x="0" y="0" fill="rgba(173, 183, 195, 1)"></rect>
        <path d="M0,424.214C87.947,421.031,183.384,448.128,257.609,400.847C331.893,353.529,351.243,257.232,387.881,177.139C424.543,96.992,486.671,19.041,472.015,-67.866C457.413,-154.455,378.173,-212.526,312.365,-270.666C253.777,-322.427,188.621,-364.994,113.048,-385.006C38.862,-404.651,-36.231,-391.598,-112.51,-383.174C-205.146,-372.944,-311.838,-392.533,-381.315,-330.412C-451.495,-267.662,-469.157,-161.109,-466.105,-67.016C-463.296,19.573,-397.568,86.419,-365.187,166.775C-330.788,252.139,-345.1,366.911,-269.878,419.939C-194.822,472.85,-91.771,427.536,0,424.214" fill="#a2aebb"></path>
        <path d="M1440 966.173C1516.102 951.906 1538.285 852.533 1592.4279999999999 797.183 1631.826 756.906 1685.506 733.6510000000001 1714.629 685.419 1746.08 633.331 1767.379 574.191 1763.748 513.452 1759.951 449.93399999999997 1741.3690000000001 382.38800000000003 1693.976 339.929 1647.919 298.667 1576.126 315.28200000000004 1518.249 293.51 1453.708 269.231 1404.754 203.433 1335.821 205.2 1262.432 207.08100000000002 1191.622 247.64 1143.538 303.114 1095.451 358.592 1066.587 434.312 1073.911 507.364 1080.758 575.651 1151.223 616.452 1181.147 678.2139999999999 1210.0720000000001 737.914 1201.464 812.827 1245.812 862.162 1295.916 917.9 1366.335 979.983 1440 966.173" fill="#b8c0cb"></path>
    </g>
    <defs>
        <mask id="SvgjsMask1068">
            <rect width="1440" height="560" fill="#ffffff"></rect>
        </mask>
    </defs>
</svg>